<?xml version="1.0" standalone="no"?>
<!DOCTYPE svg PUBLIC "-//W3C//DTD SVG 20010904//EN" "http://www.w3.org/TR/2001/REC-SVG-20010904/DTD/svg10.dtd"><svg version="1.0" xmlns="http://www.w3.org/2000/svg" width="932.000000pt" height="1345.000000pt" viewBox="0 0 932.000000 1345.000000" preserveAspectRatio="xMidYMid meet"><g transform="translate(0.000000,1345.000000) scale(0.100000,-0.100000)" fill="#000000" stroke="none">
<path d="M8712 13401 c-5 -3 -12 -74 -16 -158 -25 -553 -150 -704 -529 -638
-47 8 -266 67 -488 131 -860 246 -1154 296 -1714 289 -508 -6 -911 -76 -1295
-226 -800 -312 -1264 -899 -1371 -1739 -14 -107 -18 -483 -7 -605 30 -321 146
-664 319 -941 130 -209 354 -463 579 -657 271 -234 663 -493 1130 -747 74 -40
154 -83 176 -96 23 -12 131 -68 240 -124 110 -57 227 -118 262 -137 35 -19 65
-33 67 -31 2 2 -127 1037 -135 1075 0 2 -19 12 -42 24 -23 12 -130 73 -238
137 -1037 612 -1515 1167 -1615 1877 -20 140 -20 388 0 530 55 400 200 693
472 956 481 464 1318 662 2113 498 841 -174 1524 -794 1863 -1694 129 -342
214 -798 217 -1152 l0 -63 65 0 66 0 -3 1746 -3 1746 -52 2 c-29 2 -57 0 -61
-3z"/>
<path d="M7032 12075 c-443 -124 -858 -710 -991 -1398 -37 -190 -51 -318 -67
-620 l-6 -118 -338 -307 -338 -306 46 -32 c26 -17 59 -38 73 -47 l25 -17 265
239 c145 132 265 238 267 237 1 -2 7 -63 12 -137 18 -248 21 -284 36 -429 8
-80 55 -469 104 -865 184 -1478 216 -1874 214 -2655 0 -301 -5 -435 -18 -565
-61 -590 -207 -1101 -443 -1557 -37 -70 -64 -131 -60 -134 4 -4 114 -9 246
-12 l240 -5 44 69 c232 358 416 887 486 1394 34 240 48 804 28 1085 -54 764
-128 1188 -477 2730 -99 437 -171 834 -204 1125 l-16 135 23 21 c12 11 146
133 297 270 338 305 511 477 620 614 341 429 497 875 391 1116 -28 62 -93 128
-154 154 -67 30 -225 37 -305 15z m250 -178 c54 -29 73 -81 72 -187 -5 -279
-263 -724 -620 -1070 -104 -100 -483 -447 -551 -505 l-33 -27 0 84 c0 45 7
142 15 213 63 537 275 1014 578 1302 130 123 227 179 362 208 71 15 126 10
177 -18z"/>
<path d="M4165 8267 l-260 -252 -90 12 c-218 30 -639 13 -925 -38 -1160 -206
-2067 -992 -2431 -2104 -104 -318 -149 -611 -149 -980 -1 -534 127 -1048 367
-1471 l40 -70 -49 -135 c-199 -546 -368 -1230 -452 -1824 -41 -287 -72 -669
-81 -995 -4 -124 -8 -245 -10 -269 -2 -24 2 -57 7 -73 19 -54 96 -68 136 -25
20 21 22 38 27 237 27 972 168 1793 465 2703 34 103 63 187 65 187 2 0 54 -64
116 -142 135 -170 354 -393 499 -508 600 -477 1344 -708 2123 -662 330 20 533
54 837 142 518 150 869 326 1244 624 108 85 338 304 332 315 -3 4 -42 8 -88 9
-46 1 -146 7 -224 13 l-141 11 -48 -53 c-149 -165 -329 -325 -496 -442 -113
-78 -323 -196 -431 -243 -232 -99 -544 -172 -878 -204 -162 -15 -576 -5 -725
18 -832 130 -1506 549 -1978 1232 l-66 96 63 154 c205 507 495 1077 794 1560
347 561 774 1139 1266 1715 254 297 443 504 851 932 l90 94 107 -30 c434 -124
740 -387 958 -826 183 -368 274 -772 287 -1274 6 -228 7 -235 29 -258 46 -46
124 -22 140 43 4 15 4 118 1 228 -31 986 -377 1727 -972 2082 -52 31 -156 80
-232 110 -76 30 -146 58 -157 62 -16 7 18 44 208 227 124 121 226 223 226 226
0 5 -63 51 -125 91 -6 4 -124 -103 -270 -245z m-407 -402 c2 -2 -54 -63 -124
-137 -925 -968 -1628 -1874 -2156 -2778 -237 -404 -402 -732 -599 -1185 -43
-99 -82 -180 -86 -179 -14 2 -120 246 -167 384 -57 169 -80 264 -111 446 -80
472 -46 949 101 1405 150 467 384 850 728 1195 156 155 252 233 445 361 506
338 1135 513 1776 496 105 -3 191 -6 193 -8z"/>
<path d="M6543 8448 c21 -84 191 -858 213 -974 l28 -141 130 -78 c249 -148
494 -320 684 -480 108 -91 303 -287 378 -380 311 -389 458 -827 441 -1310 -12
-328 -100 -611 -275 -880 -339 -522 -975 -879 -1712 -959 -249 -27 -575 -17
-805 25 -662 120 -1310 513 -1789 1085 -442 529 -713 1168 -739 1741 -2 40 -5
74 -8 77 -2 2 -29 6 -59 8 -47 3 -55 1 -54 -14 1 -10 2 -794 3 -1743 l1 -1725
55 0 c37 0 55 4 55 13 0 59 23 252 37 305 62 258 222 397 468 406 141 5 276
-16 600 -94 596 -143 1082 -223 1570 -257 127 -8 501 -8 655 2 802 47 1476
269 1974 648 108 83 302 272 386 377 251 315 400 673 455 1093 19 152 20 495
0 632 -101 709 -501 1276 -1289 1828 -296 208 -694 441 -1300 761 -101 54
-108 56 -103 34z"/>
</g>
</svg>
