<svg xmlns="http://www.w3.org/2000/svg" viewBox="0 0 1440 320"><path fill="#0099ff" fill-opacity="0.5" d="M0,256L10.9,218.7C21.8,181,44,107,65,90.7C87.3,75,109,117,131,128C152.7,139,175,117,196,112C218.2,107,240,117,262,144C283.6,171,305,213,327,202.7C349.1,192,371,128,393,122.7C414.5,117,436,171,458,192C480,213,502,203,524,197.3C545.5,192,567,192,589,208C610.9,224,633,256,655,250.7C676.4,245,698,203,720,202.7C741.8,203,764,245,785,250.7C807.3,256,829,224,851,197.3C872.7,171,895,149,916,144C938.2,139,960,149,982,181.3C1003.6,213,1025,267,1047,245.3C1069.1,224,1091,128,1113,74.7C1134.5,21,1156,11,1178,10.7C1200,11,1222,21,1244,26.7C1265.5,32,1287,32,1309,80C1330.9,128,1353,224,1375,224C1396.4,224,1418,128,1429,80L1440,32L1440,320L1429.1,320C1418.2,320,1396,320,1375,320C1352.7,320,1331,320,1309,320C1287.3,320,1265,320,1244,320C1221.8,320,1200,320,1178,320C1156.4,320,1135,320,1113,320C1090.9,320,1069,320,1047,320C1025.5,320,1004,320,982,320C960,320,938,320,916,320C894.5,320,873,320,851,320C829.1,320,807,320,785,320C763.6,320,742,320,720,320C698.2,320,676,320,655,320C632.7,320,611,320,589,320C567.3,320,545,320,524,320C501.8,320,480,320,458,320C436.4,320,415,320,393,320C370.9,320,349,320,327,320C305.5,320,284,320,262,320C240,320,218,320,196,320C174.5,320,153,320,131,320C109.1,320,87,320,65,320C43.6,320,22,320,11,320L0,320Z"></path></svg>